<?xml version="1.0" standalone="no"?>
<!DOCTYPE svg PUBLIC "-//W3C//DTD SVG 20010904//EN"
 "http://www.w3.org/TR/2001/REC-SVG-20010904/DTD/svg10.dtd">
<svg version="1.0" xmlns="http://www.w3.org/2000/svg"
 width="1024.000000pt" height="1024.000000pt" viewBox="0 0 1024.000000 1024.000000"
 preserveAspectRatio="xMidYMid meet">
<metadata>
Created by potrace 1.14, written by Peter Selinger 2001-2017
</metadata>
<g transform="translate(0.000000,1024.000000) scale(0.100000,-0.100000)"
fill="#000000" stroke="none">
<path d="M4110 9638 c-72 -21 -79 -23 -100 -30 -8 -3 -44 -16 -80 -28 -95 -33
-181 -77 -378 -195 -9 -6 -66 -37 -127 -70 -60 -33 -123 -67 -140 -76 -16 -9
-50 -27 -74 -39 -80 -42 -318 -172 -371 -203 -19 -11 -68 -49 -108 -83 -41
-36 -110 -82 -160 -107 -48 -24 -112 -57 -142 -74 -30 -16 -95 -52 -145 -79
-49 -27 -103 -56 -120 -66 -16 -9 -41 -22 -55 -30 -72 -37 -255 -172 -280
-207 -3 -4 -63 -58 -135 -120 -212 -185 -249 -220 -242 -227 4 -4 17 -3 30 3
12 6 186 92 387 191 357 176 404 197 465 206 17 2 49 7 73 11 77 12 96 14 252
21 296 13 649 7 720 -11 8 -3 29 -7 46 -10 40 -6 209 -61 252 -81 25 -12 41
-33 71 -92 35 -70 39 -87 45 -182 4 -58 8 -121 11 -140 10 -94 20 -236 30
-445 12 -257 17 -352 21 -385 13 -109 12 -260 -3 -301 -8 -24 -23 -84 -34
-133 -33 -153 -54 -199 -136 -288 -40 -44 -80 -95 -88 -114 -8 -19 -22 -49
-29 -66 -8 -18 -24 -44 -35 -58 -11 -14 -84 -108 -163 -210 -210 -271 -252
-324 -258 -330 -3 -3 -28 -34 -55 -70 -27 -36 -53 -66 -57 -68 -4 -2 -8 -8 -8
-14 0 -6 -6 -16 -13 -22 -8 -6 -78 -94 -157 -196 -220 -282 -237 -298 -550
-507 -126 -84 -184 -131 -244 -194 -43 -46 -103 -110 -133 -142 -65 -68 -182
-159 -296 -228 -90 -56 -114 -75 -104 -85 9 -9 425 251 652 407 185 127 485
304 1077 635 195 109 216 115 328 99 103 -14 103 -16 85 -245 -4 -52 -8 -106
-10 -120 -3 -24 -14 -155 -20 -235 -2 -22 -6 -71 -9 -110 -9 -93 -14 -155 -21
-240 -3 -38 -8 -88 -10 -110 -3 -22 -7 -71 -10 -110 -3 -38 -7 -90 -10 -115
-5 -46 -11 -113 -20 -235 -3 -38 -7 -86 -10 -105 -2 -19 -7 -66 -10 -105 -6
-69 -8 -93 -20 -210 -3 -33 -7 -82 -10 -110 -9 -110 -21 -247 -30 -345 -2 -19
-6 -71 -10 -115 -3 -44 -8 -96 -10 -115 -2 -19 -7 -73 -10 -120 -4 -47 -8 -96
-10 -110 -2 -14 -7 -63 -10 -110 -3 -47 -8 -102 -11 -123 -9 -78 -113 -245
-226 -360 -80 -81 -124 -113 -243 -177 -44 -23 -91 -50 -105 -60 -55 -39 -192
-100 -320 -143 -525 -177 -612 -202 -820 -240 -47 -9 -145 -26 -180 -32 -56
-10 -56 -20 0 -30 19 -3 109 -19 200 -35 91 -16 188 -32 215 -36 65 -9 311
-12 350 -4 17 3 48 2 69 -2 47 -11 407 -14 456 -4 19 4 43 9 52 12 9 3 25 6
35 8 159 32 346 97 508 178 88 44 165 84 170 88 6 4 55 31 110 60 186 97 594
361 635 410 3 3 21 17 40 30 19 14 157 118 305 232 149 114 281 216 295 227
213 162 334 262 425 352 61 59 146 134 190 165 144 103 229 168 270 205 63 57
406 333 549 441 101 76 169 117 300 183 169 84 271 151 378 250 30 28 76 68
103 90 26 22 58 48 69 58 45 39 195 142 284 194 96 58 207 148 353 286 146
139 266 233 459 359 154 100 299 190 330 204 41 20 158 105 164 119 7 19 -2
22 -81 29 -34 3 -99 16 -145 30 -370 113 -496 150 -653 190 -99 26 -209 57
-245 69 -36 11 -69 22 -75 23 -5 1 -64 15 -130 32 -66 16 -167 39 -225 52 -58
12 -132 31 -165 41 -61 19 -123 33 -185 44 -19 3 -69 15 -110 26 -41 11 -82
22 -90 24 -63 15 -193 48 -230 60 -90 27 -516 166 -535 175 -44 19 -90 30
-121 30 -19 0 -75 13 -125 29 -90 29 -148 68 -242 164 -47 47 -74 32 323 182
135 51 274 102 310 113 36 11 187 67 335 125 149 58 369 140 490 182 121 43
248 93 282 111 183 100 493 389 700 654 106 136 250 394 317 571 49 129 43
162 -38 208 -72 41 -147 69 -203 76 -84 10 -115 15 -122 19 -3 2 -39 7 -78 10
-40 3 -103 12 -140 20 -38 8 -103 17 -146 21 -43 4 -88 8 -100 10 -42 7 -112
15 -177 20 -36 3 -83 7 -105 9 -22 2 -76 7 -120 11 -44 4 -96 9 -115 10 -19 2
-69 6 -110 10 -41 3 -93 7 -115 10 -22 2 -83 7 -135 11 -52 3 -111 7 -130 9
-19 2 -79 7 -133 10 -54 4 -106 8 -115 10 -10 1 -60 6 -112 9 -52 4 -111 9
-130 11 -19 3 -71 8 -115 11 -44 3 -98 8 -120 9 -22 2 -67 6 -100 9 -33 3 -94
8 -135 11 -41 3 -95 7 -120 10 -25 2 -81 6 -125 10 -44 3 -102 8 -130 10 -27
3 -88 7 -135 11 -47 4 -98 8 -115 9 -16 1 -73 6 -125 9 -52 4 -111 9 -130 11
-41 5 -209 17 -260 19 -19 1 -60 -4 -90 -11 -126 -30 -253 -34 -565 -19 -224
10 -250 15 -444 78 -181 60 -231 86 -231 121 0 33 132 135 311 241 101 60 200
119 219 131 19 12 42 24 50 28 8 4 29 16 45 26 97 60 313 175 459 246 93 45
165 84 160 87 -5 3 -38 -3 -74 -14z m1330 -1793 c63 -4 135 -8 160 -10 85 -7
185 -16 225 -20 22 -3 65 -7 95 -9 30 -3 80 -7 110 -10 30 -3 84 -7 120 -10
173 -15 207 -18 230 -21 14 -2 61 -7 105 -10 105 -8 135 -14 136 -28 13 -121
-67 -213 -391 -446 -269 -195 -363 -251 -531 -320 -42 -18 -103 -48 -135 -68
-106 -65 -408 -240 -461 -266 -125 -64 -358 -127 -478 -131 -78 -2 -150 12
-170 34 -15 17 -70 237 -80 321 -3 24 -7 62 -9 84 -10 84 -17 141 -21 175 -3
19 -7 58 -11 85 -3 28 -9 73 -14 100 -17 92 -21 135 -25 262 -4 116 -2 130 17
165 24 42 98 98 132 99 12 0 30 2 41 4 27 5 181 13 410 21 105 3 191 7 193 9
4 3 219 -3 352 -10z m-315 -1999 c49 -5 196 -30 245 -41 14 -3 35 -8 47 -11
50 -10 584 -165 663 -192 80 -27 291 -104 335 -122 11 -4 72 -27 135 -50 184
-68 230 -96 376 -226 38 -34 121 -106 184 -160 63 -54 120 -103 126 -109 33
-30 73 -64 109 -90 22 -17 45 -35 51 -40 6 -6 34 -28 62 -50 29 -21 52 -44 53
-50 0 -5 2 -18 4 -27 4 -24 -20 -42 -110 -81 -272 -116 -393 -182 -760 -409
-264 -163 -362 -222 -435 -261 -41 -22 -122 -68 -180 -102 -142 -85 -286 -156
-398 -199 -115 -44 -250 -113 -330 -169 -51 -36 -171 -139 -246 -212 -12 -11
-50 -44 -86 -74 -120 -98 -231 -205 -333 -319 -99 -112 -101 -113 -141 -111
-46 3 -83 16 -90 33 -86 206 -112 281 -176 486 -23 74 -46 151 -53 170 -6 19
-12 40 -13 45 -2 6 -21 75 -44 155 -23 80 -43 152 -45 160 -1 9 -19 74 -39
146 -20 71 -38 139 -40 149 -2 11 -9 38 -14 60 -6 22 -13 56 -16 75 -3 19 -8
46 -11 60 -8 40 -14 91 -20 165 -6 72 -12 134 -20 195 -8 62 -19 292 -20 405
0 171 10 246 45 320 5 11 19 44 31 73 23 57 48 81 160 157 90 62 134 87 179
104 19 8 49 20 65 27 115 49 190 73 246 79 35 3 75 8 89 10 14 2 50 6 80 10
30 4 66 8 80 10 14 2 54 7 90 10 36 4 67 8 68 10 2 2 13 2 25 0 12 -2 45 -6
72 -9z"/>
</g>
</svg>
